<svg width="400" height="400" viewBox="0 0 400 400" fill="none" xmlns="http://www.w3.org/2000/svg">
<g clip-path="url(#clip0_72_2)">
<path d="M355 228.5C355 272.407 287.619 308 204.5 308C121.381 308 54 272.407 54 228.5C54 184.593 121.381 149 204.5 149C287.619 149 355 184.593 355 228.5Z" fill="black"/>
<path d="M45.2548 281.255C27.6812 298.828 10.4275 310.067 6.71752 306.357C3.00753 302.647 14.2462 285.393 31.8198 267.82C49.3934 250.246 66.6471 239.008 70.3571 242.718C74.0671 246.427 62.8284 263.681 45.2548 281.255Z" fill="black"/>
<path d="M75.7922 300.792C58.2186 318.366 40.9648 329.604 37.2548 325.894C33.5449 322.184 44.7835 304.931 62.3571 287.357C79.9307 269.784 97.1845 258.545 100.894 262.255C104.604 265.965 93.3657 283.219 75.7922 300.792Z" fill="black"/>
<path d="M104.792 319.792C87.2186 337.366 69.9648 348.604 66.2548 344.894C62.5449 341.184 73.7835 323.931 91.3571 306.357C108.931 288.784 126.184 277.545 129.894 281.255C133.604 284.965 122.366 302.219 104.792 319.792Z" fill="black"/>
<path d="M320.792 171.792C303.219 189.366 285.965 200.604 282.255 196.894C278.545 193.184 289.784 175.931 307.357 158.357C324.931 140.784 342.184 129.545 345.894 133.255C349.604 136.965 338.366 154.219 320.792 171.792Z" fill="black"/>
<path d="M81.3571 161.792C98.9307 179.366 116.184 190.604 119.894 186.894C123.604 183.184 112.366 165.931 94.7922 148.357C77.2186 130.784 59.9648 119.545 56.2548 123.255C52.5449 126.965 63.7835 144.219 81.3571 161.792Z" fill="black"/>
<path d="M351.348 281.245C368.921 298.819 386.175 310.058 389.885 306.348C393.595 302.638 382.356 285.384 364.783 267.81C347.209 250.237 329.955 238.998 326.245 242.708C322.535 246.418 333.774 263.672 351.348 281.245Z" fill="black"/>
<path d="M320.81 300.783C338.384 318.356 355.638 329.595 359.348 325.885C363.058 322.175 351.819 304.921 334.245 287.348C316.672 269.774 299.418 258.535 295.708 262.245C291.998 265.955 303.237 283.209 320.81 300.783Z" fill="black"/>
<path d="M291.81 319.783C309.384 337.356 326.638 348.595 330.348 344.885C334.058 341.175 322.819 323.921 305.245 306.348C287.672 288.774 270.418 277.535 266.708 281.245C262.998 284.955 274.237 302.209 291.81 319.783Z" fill="black"/>
<path d="M29.35 55C75.35 85.6667 149.75 148.6 79.35 155C8.95004 161.4 16.6834 91 29.35 55Z" fill="black"/>
<path d="M368.947 55C322.947 85.6667 248.547 148.6 318.947 155C389.347 161.4 381.613 91 368.947 55Z" fill="black"/>
</g>
<defs>
<clipPath id="clip0_72_2">
<rect width="400" height="400" fill="white"/>
</clipPath>
</defs>
</svg>
