<svg width="400" height="400" viewBox="0 0 400 400" fill="none" xmlns="http://www.w3.org/2000/svg">
<path fill-rule="evenodd" clip-rule="evenodd" d="M350 286.5C350 330.407 282.619 366 199.5 366C116.381 366 49 330.407 49 286.5C49 242.593 116.381 207 199.5 207C282.619 207 350 242.593 350 286.5ZM164 287C164 311.853 159.747 332 154.5 332C149.253 332 145 311.853 145 287C145 262.147 149.253 242 154.5 242C159.747 242 164 262.147 164 287ZM246.5 332C251.747 332 256 311.853 256 287C256 262.147 251.747 242 246.5 242C241.253 242 237 262.147 237 287C237 311.853 241.253 332 246.5 332Z" fill="black"/>
<circle cx="155" cy="138" r="30" fill="black"/>
<circle cx="301" cy="138" r="30" fill="black"/>
</svg>
